<svg version="1.1" id="Layer_1" xmlns="http://www.w3.org/2000/svg" xmlns:xlink="http://www.w3.org/1999/xlink" x="0px" y="0px"
	 width="100%" viewBox="0 0 223 181" enable-background="new 0 0 223 181" xml:space="preserve">
<path fill="#FFFFFF" opacity="1.000000" stroke="none" 
	d="
M175.000000,0.999997 
	C191.324326,1.000000 207.648666,1.000000 223.972992,1.000000 
	C223.981995,1.157572 223.998871,1.315143 223.998871,1.472715 
	C224.000000,61.606216 224.000000,121.739716 224.000000,181.873215 
	C223.875687,181.915482 223.751373,181.994781 223.627060,181.994781 
	C149.501282,182.000061 75.375488,182.000000 1.124852,182.000000 
	C1.124852,121.783386 1.124852,61.566433 1.124852,1.000000 
	C54.020382,1.000000 107.041534,1.000000 160.501953,1.346958 
	C159.587906,3.332598 158.301239,5.032154 156.869644,6.599310 
	C151.031403,12.990314 151.878571,21.301394 159.052429,27.544235 
	C165.013901,32.732037 173.915024,31.556622 179.663223,24.822544 
	C184.533127,19.117407 183.574524,9.690753 177.776825,4.826096 
	C176.605637,3.843403 175.913177,2.290182 175.000000,0.999997 
M68.008148,34.700527 
	C65.574646,41.909821 60.285076,45.556030 52.407410,46.593372 
	C52.407410,52.963734 52.381241,59.220661 52.413429,65.477287 
	C52.463966,75.299614 56.206459,79.586227 65.654900,81.684502 
	C63.797733,83.901215 60.565540,85.986763 60.339241,88.359039 
	C59.639011,95.699516 60.083397,103.149178 60.083397,110.441322 
	C68.227470,111.679420 72.390892,116.147362 73.635773,124.160233 
	C83.626907,122.626892 94.689713,127.924789 103.117722,118.723953 
	C104.490036,124.485901 107.843040,128.508118 113.922501,128.862976 
	C121.041870,129.278534 128.204086,128.960175 135.252182,128.960175 
	C138.259048,118.504486 139.245453,117.510529 151.182419,112.821030 
	C151.182419,106.755562 151.075363,100.596161 151.213608,94.442276 
	C151.342468,88.706413 149.093445,84.469040 144.663818,81.285545 
	C146.814041,81.189796 148.963348,81.057327 151.114624,81.004593 
	C160.995758,80.762329 167.969879,73.728226 167.995697,63.918488 
	C168.015396,56.433941 167.853592,48.945061 168.070938,41.466778 
	C168.158737,38.445389 167.218704,36.816715 164.263367,36.197289 
	C155.216614,34.301159 149.746246,28.777384 147.779205,19.750334 
	C147.231293,17.235807 146.099167,15.826073 143.040115,15.917526 
	C134.897476,16.160963 126.741760,15.921097 118.593224,16.026442 
	C112.015266,16.111481 106.215530,20.251158 104.393967,26.449953 
	C103.295334,30.188585 102.909180,34.136581 101.826683,37.408134 
	C98.904617,35.209534 95.982559,33.010937 92.486542,30.395752 
	C91.312897,30.387878 90.139252,30.380003 88.046951,30.215210 
	C82.046127,30.262144 76.045311,30.309076 69.371765,30.286598 
	C69.006485,31.534019 68.641205,32.781441 68.008148,34.700527 
M48.663250,41.081383 
	C54.470604,42.470749 58.989941,41.066055 61.906456,36.965126 
	C64.669800,33.079582 64.766594,27.786463 62.058102,23.896233 
	C59.086002,19.627375 54.914459,17.980602 49.913052,19.112911 
	C45.119770,20.198103 42.101692,23.408611 41.145412,28.236311 
	C40.139263,33.315807 42.536579,37.544441 48.663250,41.081383 
M160.587204,123.252609 
	C156.084412,117.940559 151.252899,116.587936 146.200531,119.224937 
	C141.768875,121.537971 139.358063,126.681129 140.508408,131.368301 
	C142.060287,137.691559 148.167221,141.335373 154.250626,139.567841 
	C160.870529,137.644424 163.542664,131.421860 160.587204,123.252609 
M51.453072,118.231781 
	C50.974445,121.124771 50.035053,124.033127 50.130863,126.906960 
	C50.257893,130.716995 55.136177,134.045883 59.633045,134.000427 
	C64.148178,133.954773 68.643181,130.539673 68.951859,126.643364 
	C69.271225,122.612083 69.340858,118.547523 65.136887,116.079750 
	C60.344742,113.266724 55.987686,114.048676 51.453072,118.231781 
M175.981171,160.412109 
	C174.708588,157.241013 168.341202,155.360428 167.676376,157.903732 
	C166.781067,161.328751 167.454239,165.163757 167.454239,168.822815 
	C167.923111,168.846924 168.391998,168.871017 168.860870,168.895126 
	C169.614075,167.685837 170.367294,166.476547 171.035431,165.403854 
	C172.878433,166.783936 174.412384,167.932602 175.962402,169.093292 
	C175.962402,165.804993 175.962402,163.517303 175.981171,160.412109 
M151.513519,161.973068 
	C150.741318,164.147980 149.969116,166.322891 149.407837,167.903732 
	C153.422424,167.903732 156.872849,167.903732 161.038116,167.903732 
	C160.444153,166.046326 160.000473,163.719070 158.961746,161.697556 
	C158.075455,159.972733 156.505325,158.599289 155.237686,157.070404 
	C154.114227,158.478180 152.990768,159.885956 151.513519,161.973068 
M63.984390,168.749969 
	C67.765961,168.285034 71.547539,167.820099 75.441399,167.341354 
	C74.815689,165.791199 73.843353,163.376968 72.865677,160.964874 
	C72.680077,160.506989 72.578392,159.955460 72.256050,159.624146 
	C71.391350,158.735367 70.429199,157.295212 69.503563,157.293564 
	C68.577003,157.291901 67.273430,158.591309 66.791855,159.626068 
	C65.488632,162.426270 64.534195,165.388809 63.984390,168.749969 
M44.001736,163.429718 
	C43.888630,161.464218 43.775524,159.498718 43.586571,156.215256 
	C40.236717,162.460815 38.393192,162.378159 34.513115,157.261932 
	C32.214493,160.649780 32.357063,166.163910 35.108437,168.991104 
	C35.659355,167.353561 36.148785,165.898788 36.600315,164.556656 
	C40.827808,162.554398 42.062012,165.289383 43.632286,168.401291 
	C43.755424,167.035431 43.878559,165.669586 44.001736,163.429718 
M115.631630,164.835052 
	C116.087425,166.212082 116.543221,167.589111 116.999016,168.966141 
	C117.406982,168.877777 117.814949,168.789413 118.222916,168.701050 
	C118.222916,164.883926 118.222916,161.066818 118.222916,156.883652 
	C116.081833,158.604950 114.663658,160.626297 113.110687,160.735794 
	C111.672447,160.837173 110.090042,158.893631 108.544861,157.832550 
	C108.544861,161.306839 108.544861,164.844589 108.544861,168.382339 
	C109.667084,164.961792 111.239449,163.013016 115.631630,164.835052 
M187.098969,159.192276 
	C188.228775,158.920654 189.358597,158.649048 190.488403,158.377426 
	C190.440475,158.059906 190.392532,157.742386 190.344589,157.424866 
	C188.062820,157.424866 185.781052,157.424866 183.363373,157.424866 
	C183.363373,161.357147 183.363373,164.909286 183.363373,168.999924 
	C185.992203,168.858734 188.221039,168.739029 190.449875,168.619324 
	C190.437347,168.324356 190.424820,168.029373 190.412292,167.734406 
	C188.945023,167.117188 187.477753,166.499969 185.241272,165.559189 
	C187.397919,164.316650 188.688553,163.573044 190.306915,162.640640 
	C188.811203,161.444397 187.682938,160.542038 187.098969,159.192276 
M56.629799,162.725464 
	C55.590343,161.808044 54.550884,160.890640 53.225006,159.720428 
	C54.790524,159.186432 56.149937,158.722748 57.509350,158.259048 
	C57.459110,157.981583 57.408867,157.704132 57.358627,157.426666 
	C55.070778,157.426666 52.782932,157.426666 50.373100,157.426666 
	C50.373100,161.367737 50.373100,164.926376 50.373100,169.024185 
	C53.014259,168.863953 55.241047,168.728867 57.467831,168.593781 
	C57.458923,168.271957 57.450016,167.950119 57.441109,167.628281 
	C55.999336,167.130920 54.557568,166.633560 51.953201,165.735153 
	C54.136635,164.611588 55.304401,164.010666 56.629799,162.725464 
M135.181610,164.113846 
	C134.205551,158.875854 139.102966,159.592453 142.089355,157.999084 
	C138.517853,154.398575 135.931778,156.615952 133.891464,158.838333 
	C131.228287,161.739151 132.259460,166.697617 135.598785,168.765457 
	C138.674454,170.669998 140.993408,169.978683 142.460403,167.266205 
	C139.977478,166.387589 137.743408,165.597031 135.181610,164.113846 
M100.005478,161.813004 
	C100.759621,160.386566 101.513771,158.960114 102.278160,157.514282 
	C99.373123,157.514282 96.475227,157.514282 94.369850,157.514282 
	C94.977249,159.849060 95.391190,161.849121 96.030762,163.774216 
	C96.579277,165.425262 97.385918,166.990555 98.078400,168.593765 
	C98.718651,166.938293 99.374702,165.288589 99.984192,163.621857 
	C100.090248,163.331833 99.999832,162.969955 100.005478,161.813004 
M85.248856,169.000275 
	C86.341759,168.795029 87.434669,168.589783 88.527573,168.384537 
	C80.074562,167.865295 86.632065,159.435196 81.030212,156.308960 
	C81.030212,160.329208 80.764130,163.458435 81.185196,166.492294 
	C81.319206,167.457886 83.280289,168.169907 85.248856,169.000275 
z"/>
<path fill="#F2F1EC" opacity="1.000000" stroke="none" 
	d="
M174.535370,0.999997 
	C175.913177,2.290182 176.605637,3.843403 177.776825,4.826096 
	C183.574524,9.690753 184.533127,19.117407 179.663223,24.822544 
	C173.915024,31.556622 165.013901,32.732037 159.052429,27.544235 
	C151.878571,21.301394 151.031403,12.990314 156.869644,6.599310 
	C158.301239,5.032154 159.587906,3.332598 160.970612,1.346958 
	C165.356903,1.000000 169.713806,1.000000 174.535370,0.999997 
z"/>
<path fill="#F2F1EC" opacity="1.000000" stroke="none" 
	d="
M102.202881,37.990501 
	C102.909180,34.136581 103.295334,30.188585 104.393967,26.449953 
	C106.215530,20.251158 112.015266,16.111481 118.593224,16.026442 
	C126.741760,15.921097 134.897476,16.160963 143.040115,15.917526 
	C146.099167,15.826073 147.231293,17.235807 147.779205,19.750334 
	C149.746246,28.777384 155.216614,34.301159 164.263367,36.197289 
	C167.218704,36.816715 168.158737,38.445389 168.070938,41.466778 
	C167.853592,48.945061 168.015396,56.433941 167.995697,63.918488 
	C167.969879,73.728226 160.995758,80.762329 151.114624,81.004593 
	C148.963348,81.057327 146.814041,81.189796 143.931824,81.451172 
	C137.125046,81.306755 131.050232,80.996704 125.033821,80.340424 
	C125.506706,79.097786 125.841621,78.153374 126.348793,77.312904 
	C129.328171,72.375549 128.357330,67.694160 124.944588,63.592220 
	C121.372139,59.298321 116.474976,57.785755 111.146698,59.567139 
	C108.304703,60.517292 105.816147,62.524628 103.128662,63.584328 
	C102.793793,54.739391 102.498337,46.364948 102.202881,37.990501 
z"/>
<path fill="#2A9ED2" opacity="1.000000" stroke="none" 
	d="
M124.975433,80.686661 
	C131.050232,80.996704 137.125046,81.306755 143.606171,81.691399 
	C149.093445,84.469040 151.342468,88.706413 151.213608,94.442276 
	C151.075363,100.596161 151.182419,106.755562 151.182419,112.821030 
	C139.245453,117.510529 138.259048,118.504486 135.252182,128.960175 
	C128.204086,128.960175 121.041870,129.278534 113.922501,128.862976 
	C107.843040,128.508118 104.490036,124.485901 103.081596,117.905785 
	C103.156937,111.799835 103.268402,106.512054 103.657944,101.057373 
	C110.949150,94.155861 117.962296,87.421257 124.975433,80.686661 
z"/>
<path fill="#2A9ED2" opacity="1.000000" stroke="none" 
	d="
M102.014786,37.699318 
	C102.498337,46.364948 102.793793,54.739391 102.762238,63.612446 
	C101.796509,63.594398 101.143028,63.094856 100.521416,62.558388 
	C95.431969,58.166039 89.089317,57.582691 84.192146,61.065269 
	C78.876335,64.845581 77.267693,71.484993 80.080681,77.852959 
	C80.529411,78.868774 80.789574,79.967896 80.665543,80.965569 
	C75.456009,80.966011 70.717857,81.029381 65.979706,81.092751 
	C56.206459,79.586227 52.463966,75.299614 52.413429,65.477287 
	C52.381241,59.220661 52.407410,52.963734 52.407410,46.593372 
	C60.285076,45.556030 65.574646,41.909821 68.454910,34.283798 
	C69.282608,32.696716 69.663544,31.526363 70.044487,30.356009 
	C76.045311,30.309076 82.046127,30.262144 88.606094,30.606819 
	C90.463654,30.936396 91.762070,30.874365 93.060493,30.812336 
	C95.982559,33.010937 98.904617,35.209534 102.014786,37.699318 
z"/>
<path fill="#F2F1EC" opacity="1.000000" stroke="none" 
	d="
M65.817307,81.388626 
	C70.717857,81.029381 75.456009,80.966011 80.999512,80.981918 
	C83.306343,82.310585 84.883270,83.480598 86.296074,84.823296 
	C92.018120,90.261406 97.689674,95.752647 103.379868,101.224274 
	C103.268402,106.512054 103.156937,111.799835 102.980011,117.551949 
	C94.689713,127.924789 83.626907,122.626892 73.635773,124.160233 
	C72.390892,116.147362 68.227470,111.679420 60.083397,110.441322 
	C60.083397,103.149178 59.639011,95.699516 60.339241,88.359039 
	C60.565540,85.986763 63.797733,83.901215 65.817307,81.388626 
z"/>
<path fill="#2C9FD3" opacity="1.000000" stroke="none" 
	d="
M48.299896,40.952564 
	C42.536579,37.544441 40.139263,33.315807 41.145412,28.236311 
	C42.101692,23.408611 45.119770,20.198103 49.913052,19.112911 
	C54.914459,17.980602 59.086002,19.627375 62.058102,23.896233 
	C64.766594,27.786463 64.669800,33.079582 61.906456,36.965126 
	C58.989941,41.066055 54.470604,42.470749 48.299896,40.952564 
z"/>
<path fill="#2C9FD3" opacity="1.000000" stroke="none" 
	d="
M160.773376,123.598717 
	C163.542664,131.421860 160.870529,137.644424 154.250626,139.567841 
	C148.167221,141.335373 142.060287,137.691559 140.508408,131.368301 
	C139.358063,126.681129 141.768875,121.537971 146.200531,119.224937 
	C151.252899,116.587936 156.084412,117.940559 160.773376,123.598717 
z"/>
<path fill="#F2F1EC" opacity="1.000000" stroke="none" 
	d="
M51.700287,117.924469 
	C55.987686,114.048676 60.344742,113.266724 65.136887,116.079750 
	C69.340858,118.547523 69.271225,122.612083 68.951859,126.643364 
	C68.643181,130.539673 64.148178,133.954773 59.633045,134.000427 
	C55.136177,134.045883 50.257893,130.716995 50.130863,126.906960 
	C50.035053,124.033127 50.974445,121.124771 51.700287,117.924469 
z"/>
<path fill="#F8F8F8" opacity="1.000000" stroke="none" 
	d="
M175.971786,160.820862 
	C175.962402,163.517303 175.962402,165.804993 175.962402,169.093292 
	C174.412384,167.932602 172.878433,166.783936 171.035431,165.403854 
	C170.367294,166.476547 169.614075,167.685837 168.860870,168.895126 
	C168.391998,168.871017 167.923111,168.846924 167.454239,168.822815 
	C167.454239,165.163757 166.781067,161.328751 167.676376,157.903732 
	C168.341202,155.360428 174.708588,157.241013 175.971786,160.820862 
z"/>
<path fill="#F8F8F8" opacity="1.000000" stroke="none" 
	d="
M151.690414,161.633392 
	C152.990768,159.885956 154.114227,158.478180 155.237686,157.070404 
	C156.505325,158.599289 158.075455,159.972733 158.961746,161.697556 
	C160.000473,163.719070 160.444153,166.046326 161.038116,167.903732 
	C156.872849,167.903732 153.422424,167.903732 149.407837,167.903732 
	C149.969116,166.322891 150.741318,164.147980 151.690414,161.633392 
z"/>
<path fill="#F8F8F8" opacity="1.000000" stroke="none" 
	d="
M63.712898,168.518463 
	C64.534195,165.388809 65.488632,162.426270 66.791855,159.626068 
	C67.273430,158.591309 68.577003,157.291901 69.503563,157.293564 
	C70.429199,157.295212 71.391350,158.735367 72.256050,159.624146 
	C72.578392,159.955460 72.680077,160.506989 72.865677,160.964874 
	C73.843353,163.376968 74.815689,165.791199 75.441399,167.341354 
	C71.547539,167.820099 67.765961,168.285034 63.712898,168.518463 
z"/>
<path fill="#F8F8F8" opacity="1.000000" stroke="none" 
	d="
M44.001717,163.866730 
	C43.878559,165.669586 43.755424,167.035431 43.632286,168.401291 
	C42.062012,165.289383 40.827808,162.554398 36.600315,164.556656 
	C36.148785,165.898788 35.659355,167.353561 35.108437,168.991104 
	C32.357063,166.163910 32.214493,160.649780 34.513115,157.261932 
	C38.393192,162.378159 40.236717,162.460815 43.586571,156.215256 
	C43.775524,159.498718 43.888630,161.464218 44.001717,163.866730 
z"/>
<path fill="#F8F8F8" opacity="1.000000" stroke="none" 
	d="
M115.328445,164.561417 
	C111.239449,163.013016 109.667084,164.961792 108.544861,168.382339 
	C108.544861,164.844589 108.544861,161.306839 108.544861,157.832550 
	C110.090042,158.893631 111.672447,160.837173 113.110687,160.735794 
	C114.663658,160.626297 116.081833,158.604950 118.222916,156.883652 
	C118.222916,161.066818 118.222916,164.883926 118.222916,168.701050 
	C117.814949,168.789413 117.406982,168.877777 116.999016,168.966141 
	C116.543221,167.589111 116.087425,166.212082 115.328445,164.561417 
z"/>
<path fill="#F8F8F8" opacity="1.000000" stroke="none" 
	d="
M186.826813,159.415985 
	C187.682938,160.542038 188.811203,161.444397 190.306915,162.640640 
	C188.688553,163.573044 187.397919,164.316650 185.241272,165.559189 
	C187.477753,166.499969 188.945023,167.117188 190.412292,167.734406 
	C190.424820,168.029373 190.437347,168.324356 190.449875,168.619324 
	C188.221039,168.739029 185.992203,168.858734 183.363373,168.999924 
	C183.363373,164.909286 183.363373,161.357147 183.363373,157.424866 
	C185.781052,157.424866 188.062820,157.424866 190.344589,157.424866 
	C190.392532,157.742386 190.440475,158.059906 190.488403,158.377426 
	C189.358597,158.649048 188.228775,158.920654 186.826813,159.415985 
z"/>
<path fill="#F8F8F8" opacity="1.000000" stroke="none" 
	d="
M56.550983,163.067596 
	C55.304401,164.010666 54.136635,164.611588 51.953201,165.735153 
	C54.557568,166.633560 55.999336,167.130920 57.441109,167.628281 
	C57.450016,167.950119 57.458923,168.271957 57.467831,168.593781 
	C55.241047,168.728867 53.014259,168.863953 50.373100,169.024185 
	C50.373100,164.926376 50.373100,161.367737 50.373100,157.426666 
	C52.782932,157.426666 55.070778,157.426666 57.358627,157.426666 
	C57.408867,157.704132 57.459110,157.981583 57.509350,158.259048 
	C56.149937,158.722748 54.790524,159.186432 53.225006,159.720428 
	C54.550884,160.890640 55.590343,161.808044 56.550983,163.067596 
z"/>
<path fill="#F8F8F8" opacity="1.000000" stroke="none" 
	d="
M135.345474,164.460175 
	C137.743408,165.597031 139.977478,166.387589 142.460403,167.266205 
	C140.993408,169.978683 138.674454,170.669998 135.598785,168.765457 
	C132.259460,166.697617 131.228287,161.739151 133.891464,158.838333 
	C135.931778,156.615952 138.517853,154.398575 142.089355,157.999084 
	C139.102966,159.592453 134.205551,158.875854 135.345474,164.460175 
z"/>
<path fill="#F9F9F9" opacity="1.000000" stroke="none" 
	d="
M100.002823,162.227142 
	C99.999832,162.969955 100.090248,163.331833 99.984192,163.621857 
	C99.374702,165.288589 98.718651,166.938293 98.078400,168.593765 
	C97.385918,166.990555 96.579277,165.425262 96.030762,163.774216 
	C95.391190,161.849121 94.977249,159.849060 94.369850,157.514282 
	C96.475227,157.514282 99.373123,157.514282 102.278160,157.514282 
	C101.513771,158.960114 100.759621,160.386566 100.002823,162.227142 
z"/>
<path fill="#F8F8F8" opacity="1.000000" stroke="none" 
	d="
M84.827087,168.999115 
	C83.280289,168.169907 81.319206,167.457886 81.185196,166.492294 
	C80.764130,163.458435 81.030212,160.329208 81.030212,156.308960 
	C86.632065,159.435196 80.074562,167.865295 88.527573,168.384537 
	C87.434669,168.589783 86.341759,168.795029 84.827087,168.999115 
z"/>
<path fill="#40A8D7" opacity="1.000000" stroke="none" 
	d="
M92.773514,30.604044 
	C91.762070,30.874365 90.463654,30.936396 89.065414,30.685278 
	C90.139252,30.380003 91.312897,30.387878 92.773514,30.604044 
z"/>
<path fill="#40A8D7" opacity="1.000000" stroke="none" 
	d="
M69.708130,30.321304 
	C69.663544,31.526363 69.282608,32.696716 68.588791,33.947968 
	C68.641205,32.781441 69.006485,31.534019 69.708130,30.321304 
z"/>
<path fill="#FEFFFF" opacity="1.000000" stroke="none" 
	d="
M103.657944,101.057373 
	C97.689674,95.752647 92.018120,90.261406 86.296074,84.823296 
	C84.883270,83.480598 83.306343,82.310585 81.470886,81.044846 
	C80.789574,79.967896 80.529411,78.868774 80.080681,77.852959 
	C77.267693,71.484993 78.876335,64.845581 84.192146,61.065269 
	C89.089317,57.582691 95.431969,58.166039 100.521416,62.558388 
	C101.143028,63.094856 101.796509,63.594398 102.801643,64.082932 
	C105.816147,62.524628 108.304703,60.517292 111.146698,59.567139 
	C116.474976,57.785755 121.372139,59.298321 124.944588,63.592220 
	C128.357330,67.694160 129.328171,72.375549 126.348793,77.312904 
	C125.841621,78.153374 125.506706,79.097786 125.033821,80.340416 
	C117.962296,87.421257 110.949150,94.155861 103.657944,101.057373 
z"/>
</svg>